<svg width="180" height="200" viewBox="0 0 180 200" xmlns="http://www.w3.org/2000/svg">
  <style>
    .brand-fill { fill: #0f3044; }
    .brand-stroke {
      stroke: #0f3044;
      stroke-width: 8;
      stroke-linecap: round;
      stroke-linejoin: round;
      fill: none;
    }
  </style>
  <g>
    <circle cx="90" cy="36" r="14" class="brand-fill" />
    <path
      class="brand-fill"
      d="M90 56c-22.5 0-39.5-11.5-51-29h25c6.5 8 15 13 26 13s19.5-5 26-13h25c-11.5 17.5-28.5 29-51 29z"
    />
    <path
      class="brand-stroke"
      d="M90 56v118M60 88c0-12 11-20 30-20s30 8 30 20c0 18-20 20-20 36 0 12 10 16 20 16M120 88c0-12-11-20-30-20s-30 8-30 20c0 18 20 20 20 36 0 12-10 16-20 16"
    />
    <path
      class="brand-fill"
      d="M90 182a10 10 0 1 1 0-20 10 10 0 0 1 0 20z"
    />
  </g>
</svg>

